<svg width="20" height="20" viewBox="0 0 20 20" fill="none" xmlns="http://www.w3.org/2000/svg">
<path d="M14.5 1.8252C17.0277 1.8252 19 3.79748 19 6.3252C19 7.88673 18.3066 9.38189 16.8818 11.125C15.4459 12.8817 13.3736 14.7655 10.7793 17.123L10.002 17.8242L9.22363 17.1152L9.22168 17.1143C6.62662 14.7611 4.55418 12.8787 3.11816 11.123C1.69361 9.38139 1 7.88671 1 6.3252C1 3.79748 2.97228 1.8252 5.5 1.8252C6.93712 1.8252 8.33187 2.4992 9.23828 3.56348L10 4.45801L10.7617 3.56348C11.6681 2.4992 13.0629 1.8252 14.5 1.8252Z" fill="white" stroke="#0C0C0C" stroke-width="2"/>
</svg>
